# xmcd
#
# Track frame offsets:
#	150
#	13840
#	26055
#	43007
#	57767
#	72142
#	87090
#	100807
#	111987
#	124542
#	134682
#
# Disc length: 2005 seconds
#
# Revision: 2
# Processed by: cddbd v1.5.2PL0 Copyright (c) Steve Scherf et al.
# Submitted via: audiograbber 1.83.01
#
DISCID=9307d30b
DTITLE=Tracey Prescott and Lonesome Daddy - Tracey Prescott and Lonesome Daddy
DYEAR=1992
DGENRE=Country
TTITLE0=Something Big
TTITLE1=Lonesome Town
TTITLE2=When You're Not Loving Me
TTITLE3=Out on the Run
TTITLE4=If Only You Knew
TTITLE5=Lonesome Daddy
TTITLE6=Down on the Farm
TTITLE7=Take a Little Time
TTITLE8=Whoa Boy
TTITLE9=Don't You Ever Leave Me
TTITLE10=Nobody's Home on the Range
EXTD=
EXTT0=
EXTT1=
EXTT2=
EXTT3=
EXTT4=
EXTT5=
EXTT6=
EXTT7=
EXTT8=
EXTT9=
EXTT10=
PLAYORDER=
